<svg width="245" height="241" viewBox="0 0 245 241" fill="none" xmlns="http://www.w3.org/2000/svg">
<path d="M44.586 209.898C44.0297 209.898 43.6207 209.862 43.416 209.84C42.2412 209.708 36.2548 208.775 33.7543 203.253C31.2019 197.616 34.6299 192.451 34.7768 192.234C36.6411 189.483 38.9559 187.94 41.6607 187.641C44.7991 187.297 48.025 188.7 49.8802 191.219C52.3331 194.55 52.3294 199.59 49.8729 201.793C49.5679 202.066 47.9522 203.403 46.0735 202.881C44.6944 202.498 43.5573 201.22 43.4284 199.908C43.3226 198.834 43.9114 198.152 44.4813 197.493C45.0247 196.863 45.5872 196.212 45.8564 195.063C46.1783 193.691 46.0728 192.467 45.5436 191.423C44.5582 189.482 42.4452 188.894 41.6999 188.743C38.1803 189.171 36.3079 191.933 35.6897 192.846C35.5528 193.048 32.4532 197.717 34.7548 202.8C37.0099 207.78 42.4664 208.629 43.5375 208.748C44.326 208.837 48.4381 209.134 51.9145 206.307C55.2239 203.616 55.9871 199.763 56.142 198.646C57.0084 192.402 51.1473 187.179 44.9423 181.648C38.5656 175.965 31.972 170.088 32.6327 162.648C32.941 159.177 34.3384 156.091 36.5668 153.958C40.1205 150.557 44.6446 150.519 45.514 150.547C46.6957 150.584 52.7385 151.035 55.6736 156.336C58.6696 161.747 55.6696 167.173 55.5403 167.401C53.9026 170.293 51.7193 172.017 49.0478 172.533C45.9468 173.13 42.6191 171.99 40.5672 169.627C37.8548 166.505 37.453 161.481 39.7242 159.087C40.0055 158.79 41.508 157.328 43.4233 157.698C44.8288 157.968 46.0651 159.151 46.2991 160.448C46.4906 161.51 45.9585 162.238 45.4444 162.941C44.9529 163.612 44.445 164.306 44.2692 165.473C44.059 166.866 44.2623 168.079 44.8738 169.076C46.0299 170.961 48.2986 171.362 48.9208 171.438C52.3942 170.729 54.0381 167.825 54.5812 166.866C54.7013 166.654 57.4142 161.748 54.7127 156.869C52.0658 152.088 46.5577 151.679 45.4803 151.646C44.6863 151.62 40.5636 151.655 37.3267 154.753C35.2902 156.701 34.0122 159.54 33.7272 162.745C33.1157 169.636 39.4998 175.326 45.6736 180.829C51.8211 186.308 58.1777 191.973 57.2307 198.797C57.0615 200.015 56.2288 204.216 52.6077 207.16C49.6953 209.526 46.3782 209.898 44.586 209.898ZM44.965 189.045C45.559 189.511 46.1164 190.123 46.5236 190.926C46.9704 191.806 47.4032 193.283 46.9268 195.314C46.5957 196.725 45.8849 197.549 45.3136 198.21C44.7548 198.857 44.4659 199.222 44.5226 199.801C44.6083 200.671 45.4191 201.559 46.3687 201.822C47.7226 202.198 48.9995 201.101 49.1405 200.975C51.1711 199.154 51.1012 194.73 48.9962 191.871C48.0034 190.523 46.5628 189.539 44.965 189.045ZM42.8092 158.737C41.608 158.737 40.639 159.719 40.5218 159.843C38.6439 161.822 39.0691 166.226 41.3971 168.906C42.4946 170.17 44.0092 171.035 45.641 171.398C45.0126 170.981 44.408 170.416 43.9374 169.649C43.1871 168.425 42.9333 166.965 43.1831 165.308C43.3995 163.875 44.0418 162.997 44.5582 162.291C45.0632 161.601 45.3217 161.215 45.2188 160.643C45.0635 159.782 44.1839 158.963 43.2164 158.776C43.0783 158.749 42.9425 158.737 42.8092 158.737Z" fill="#ffffff"/>
<path d="M15.6561 112.437L15.2064 110.762C14.6051 108.521 13.5885 106.775 12.1848 105.573C11.3645 104.871 10.4677 104.387 9.67592 103.96C8.4711 103.311 7.5197 102.797 7.59001 101.818C7.64751 101.016 8.43925 100.407 9.15518 100.242C11.2664 99.7572 13.368 102.955 14.1579 104.161C14.8662 105.242 15.4312 106.419 15.8472 107.677C16.3119 106.425 16.9103 105.247 17.6358 104.158C18.7033 102.555 20.4907 99.8733 22.5781 100.22C23.4339 100.362 24.3586 101.021 24.4234 101.876C24.4978 102.858 23.5163 103.387 22.2738 104.057C21.5106 104.468 20.6456 104.935 19.822 105.587C18.2748 106.811 17.0744 108.568 16.253 110.809L15.6561 112.437ZM22.2145 101.288C20.8672 101.288 19.3145 103.62 18.5506 104.767C18.2957 105.15 18.0573 105.544 17.8361 105.951C18.2415 105.501 18.6765 105.092 19.1405 104.725C20.0396 104.014 20.9895 103.501 21.7527 103.09C22.4638 102.706 23.3486 102.229 23.3285 101.959C23.3116 101.735 22.8703 101.381 22.3983 101.303C22.3371 101.293 22.276 101.288 22.2145 101.288ZM9.60525 101.29C9.53201 101.29 9.46462 101.298 9.40273 101.313C9.03323 101.398 8.69998 101.705 8.68607 101.897C8.66666 102.167 9.51589 102.625 10.1978 102.994C10.9961 103.424 11.9896 103.961 12.8993 104.739C13.178 104.978 13.4427 105.235 13.6936 105.51C13.5497 105.256 13.398 105.007 13.2387 104.764C11.4022 101.96 10.2684 101.29 9.60525 101.29Z" fill="#ffffff"/>
<path d="M15.7689 111.684L15.2741 109.797C15.1068 109.158 14.8687 108.239 14.5911 107.131C13.4892 102.728 13.4295 101.966 13.546 101.05C13.7236 99.6581 14.3414 98.3042 15.3825 97.0257L15.7645 96.5563L16.1948 96.9822C17.4651 98.2397 18.21 99.5987 18.4088 101.021C18.555 102.068 18.3832 102.884 17.0945 107.255C16.7884 108.293 16.5262 109.169 16.3314 109.816L15.7689 111.684ZM15.8538 98.2203C15.1738 99.1834 14.7647 100.18 14.6358 101.189C14.5402 101.94 14.6058 102.663 15.6568 106.864C15.7216 107.122 15.7842 107.371 15.8443 107.608C15.9073 107.395 15.9732 107.174 16.0406 106.944C17.3256 102.585 17.4307 101.959 17.3212 101.173C17.1795 100.159 16.6866 99.1681 15.8538 98.2203Z" fill="#ffffff"/>
<path d="M138.824 234.106C137.909 234.106 137.393 233.15 136.747 231.952C136.335 231.189 135.869 230.324 135.218 229.5C133.993 227.953 132.237 226.752 129.996 225.931L128.367 225.335L130.043 224.885C132.284 224.284 134.03 223.267 135.231 221.863C135.933 221.043 136.417 220.146 136.844 219.354C137.494 218.15 138.009 217.193 138.987 217.269C139.789 217.326 140.398 218.118 140.562 218.834C141.051 220.949 137.849 223.047 136.643 223.836C135.563 224.545 134.386 225.11 133.127 225.526C134.379 225.99 135.557 226.588 136.647 227.314C138.25 228.382 140.933 230.168 140.585 232.256C140.442 233.113 139.784 234.037 138.928 234.102C138.893 234.105 138.858 234.106 138.824 234.106ZM134.854 227.514C135.304 227.92 135.712 228.355 136.079 228.819C136.791 229.718 137.303 230.668 137.714 231.431C138.097 232.142 138.573 233.033 138.845 233.007C139.069 232.99 139.422 232.549 139.501 232.077C139.732 230.69 137.237 229.028 136.038 228.229C135.655 227.974 135.26 227.736 134.854 227.514ZM138.899 218.365C138.627 218.365 138.175 219.202 137.811 219.877C137.38 220.675 136.844 221.669 136.066 222.578C135.827 222.857 135.57 223.122 135.295 223.373C135.549 223.229 135.798 223.077 136.041 222.918C139.154 220.879 139.636 219.706 139.492 219.082C139.407 218.712 139.1 218.378 138.908 218.365C138.905 218.365 138.902 218.365 138.899 218.365Z" fill="#ffffff"/>
<path d="M139.198 228.132C138.31 228.132 137.107 227.822 133.55 226.773C132.511 226.467 131.635 226.205 130.989 226.011L129.121 225.448L131.008 224.953C131.647 224.786 132.566 224.548 133.674 224.27C138.078 223.168 138.84 223.11 139.755 223.225C141.147 223.402 142.501 224.02 143.779 225.062L144.249 225.444L143.823 225.874C142.565 227.145 141.206 227.89 139.783 228.088C139.588 228.115 139.401 228.132 139.198 228.132ZM133.196 225.524C133.409 225.587 133.631 225.652 133.86 225.72C138.22 227.005 138.847 227.111 139.63 227C140.645 226.858 141.637 226.366 142.584 225.533C141.621 224.853 140.625 224.443 139.615 224.315C138.864 224.218 138.141 224.285 133.941 225.336C133.682 225.401 133.433 225.464 133.196 225.524Z" fill="#ffffff"/>
<path d="M79.2342 192.16C77.954 192.16 76.4379 191.128 74.5138 189.82C72.8736 188.704 71.0151 187.441 68.8007 186.445C64.6259 184.57 59.7378 183.975 54.2718 184.677L52.5517 184.898L53.8312 183.727C57.7958 180.098 60.3014 176.131 61.2788 171.935C61.8482 169.492 61.8848 167.155 61.9171 165.093C61.9618 162.256 61.9969 160.015 63.6203 159.315C64.9317 158.748 66.6748 159.535 67.6021 160.623C70.4654 163.982 66.4101 171.203 64.883 173.921C63.1483 177.011 60.8961 179.822 58.1722 182.299C61.8142 181.646 65.4576 181.511 69.031 181.9C73.1819 182.351 80.1296 183.107 81.4666 187.223C81.9778 188.797 81.7006 191.01 80.3614 191.839C80.0051 192.06 79.6312 192.16 79.2342 192.16ZM58.8717 183.294C62.6649 183.328 66.1416 184.047 69.2507 185.443C71.5531 186.478 73.5372 187.827 75.1313 188.911C77.2274 190.337 78.8827 191.463 79.7835 190.905C80.6049 190.397 80.7983 188.721 80.4218 187.563C79.3042 184.123 72.544 183.388 68.9123 182.993C65.6088 182.633 62.2426 182.735 58.8717 183.294ZM64.5757 160.225C64.3893 160.225 64.2128 160.255 64.0553 160.323C63.0842 160.743 63.0538 162.67 63.0157 165.11C62.9842 167.123 62.9446 169.627 62.3488 172.185C61.6153 175.333 60.0747 178.35 57.7533 181.192C60.2464 178.867 62.317 176.249 63.9253 173.384C65.2133 171.091 69.1328 164.113 66.766 161.336C66.25 160.731 65.3305 160.225 64.5757 160.225Z" fill="#ffffff"/>
<path d="M54.3839 184.17L55.8304 182.862C57.352 181.485 58.9061 180.094 60.4501 178.729C68.0269 172.026 69.4466 171.135 71.3114 170.449C74.1583 169.403 77.3823 169.241 80.8954 169.969L81.4879 170.092L81.3084 170.67C80.1582 174.371 78.3001 177.154 75.7853 178.942C73.9492 180.246 72.1738 180.735 62.2137 182.675C59.8191 183.141 57.7958 183.527 56.3006 183.809L54.3839 184.17ZM76.7312 170.62C74.9339 170.62 73.2482 170.907 71.69 171.481C70.0022 172.101 68.5787 173.004 61.1773 179.552C60.1263 180.482 59.0702 181.423 58.0228 182.364C59.1826 182.143 60.5218 181.885 62.0035 181.597C71.6556 179.717 73.4984 179.219 75.1485 178.046C77.3307 176.495 78.9841 174.103 80.0685 170.928C78.9189 170.723 77.8049 170.62 76.7312 170.62Z" fill="#ffffff"/>
<path d="M130.907 226.005H4.14217V8.21228H5.24079V224.907H130.907V226.005Z" fill="#ffffff"/>
<path d="M233.134 236.38H15.34V109.615H16.4386V235.281H233.134V236.38Z" fill="#ffffff"/>
<path d="M31.2945 51.9934C30.6127 53.7197 28.5542 54.5568 26.9001 54.5568C25.2565 54.5568 23.216 53.731 22.5056 51.9934C21.9072 50.5293 22.5433 49.1286 23.238 47.5989C23.7848 46.3948 25.0939 43.5121 26.9001 43.5706C28.336 43.6172 29.3035 45.498 30.1959 47.2327C31.158 49.1026 31.8812 50.5084 31.2945 51.9934Z" fill="#ffffff"/>
<path d="M26.8997 55.1061C25.11 55.1061 22.8128 54.1972 21.9973 52.201C21.3092 50.5175 22.0354 48.9183 22.7381 47.3715C23.3391 46.0487 24.7464 42.9363 26.918 43.0213C28.6769 43.0784 29.7436 45.1515 30.6844 46.9811C31.6897 48.9352 32.4836 50.4784 31.8058 52.1948C31.0158 54.1942 28.7091 55.1054 26.9004 55.1057C26.9004 55.1061 26.9001 55.1061 26.8997 55.1061ZM26.8459 44.1188C25.4217 44.1188 24.2004 46.8079 23.7382 47.8259C23.0765 49.2827 22.5052 50.5406 23.0142 51.7853C23.6383 53.3121 25.4656 54.0075 26.8997 54.0075C28.3949 54.0075 30.2091 53.2461 30.7837 51.7916C31.2788 50.5381 30.6196 49.2571 29.7074 47.4839C28.905 45.9239 27.9954 44.1558 26.8821 44.1195C26.87 44.1192 26.8579 44.1188 26.8459 44.1188Z" fill="#ffffff"/>
<path d="M235.624 240.236C233.897 239.554 233.06 237.496 233.06 235.842C233.06 234.198 233.886 232.158 235.624 231.447C237.088 230.849 238.489 231.485 240.018 232.18C241.222 232.726 244.105 234.036 244.046 235.842C244 237.278 242.119 238.245 240.384 239.138C238.515 240.1 237.109 240.823 235.624 240.236Z" fill="#ffffff"/>
<path d="M236.731 241C236.299 241 235.867 240.923 235.422 240.748C233.422 239.958 232.511 237.651 232.511 235.842C232.511 234.052 233.42 231.755 235.416 230.939C237.1 230.25 238.699 230.977 240.246 231.679C241.569 232.28 244.666 233.687 244.596 235.86C244.539 237.618 242.466 238.685 240.637 239.626C239.187 240.371 237.965 241 236.731 241ZM235.826 239.725C237.078 240.22 238.359 239.562 240.131 238.65C241.694 237.846 243.461 236.937 243.498 235.824C243.544 234.384 240.818 233.146 239.791 232.68C238.334 232.018 237.077 231.446 235.831 231.956C234.304 232.58 233.609 234.407 233.61 235.841C233.61 237.337 234.371 239.151 235.826 239.725Z" fill="#ffffff"/>
<path d="M188.639 216.669H26.227V54.2565H27.3256V215.57H188.639V216.669Z" fill="#ffffff"/>
<path d="M4.8039 8.11453C6.8264 8.11453 8.46596 6.47497 8.46596 4.45247C8.46596 2.42997 6.8264 0.790405 4.8039 0.790405C2.78139 0.790405 1.14183 2.42997 1.14183 4.45247C1.14183 6.47497 2.78139 8.11453 4.8039 8.11453Z" fill="#ffffff"/>
<path d="M4.8039 8.66383C2.48179 8.66383 0.592529 6.77458 0.592529 4.45246C0.592529 2.13035 2.48179 0.241089 4.8039 0.241089C7.12602 0.241089 9.01528 2.13035 9.01528 4.45246C9.01528 6.77458 7.12602 8.66383 4.8039 8.66383ZM4.8039 1.33971C3.08749 1.33971 1.69115 2.73605 1.69115 4.45246C1.69115 6.16887 3.08749 7.56522 4.8039 7.56522C6.52031 7.56522 7.91666 6.16887 7.91666 4.45246C7.91666 2.73605 6.52031 1.33971 4.8039 1.33971Z" fill="#ffffff"/>
<path d="M192.302 219.782C194.324 219.782 195.964 218.142 195.964 216.12C195.964 214.097 194.324 212.458 192.302 212.458C190.279 212.458 188.639 214.097 188.639 216.12C188.639 218.142 190.279 219.782 192.302 219.782Z" fill="#ffffff"/>
<path d="M192.302 220.331C189.979 220.331 188.09 218.442 188.09 216.12C188.09 213.798 189.979 211.908 192.302 211.908C194.624 211.908 196.513 213.798 196.513 216.12C196.513 218.442 194.623 220.331 192.302 220.331ZM192.302 213.007C190.585 213.007 189.189 214.403 189.189 216.12C189.189 217.836 190.585 219.232 192.302 219.232C194.018 219.232 195.414 217.836 195.414 216.12C195.414 214.403 194.018 213.007 192.302 213.007Z" fill="#ffffff"/>
<path d="M33.9935 157.549L34.72 155.912L35.0837 155.095L35.485 154.295C36.0329 153.234 36.6309 152.197 37.2838 151.198C37.9302 150.194 38.63 149.231 39.3298 148.283C40.0304 147.34 40.7156 146.389 41.4026 145.433C42.7634 143.523 44.1454 141.618 45.1767 139.569C45.6853 138.544 46.0706 137.472 46.2771 136.365C46.3365 136.09 46.3577 135.808 46.4005 135.529C46.4185 135.248 46.4463 134.966 46.4533 134.684C46.4723 134.118 46.4438 133.553 46.3694 132.994C46.2222 131.879 45.8981 130.782 45.3521 129.825C44.7925 128.849 44.0821 127.948 43.2398 127.226C42.3946 126.518 41.404 125.974 40.3358 125.836C39.2771 125.684 38.1598 125.856 37.1667 126.323C36.1735 126.776 35.2855 127.479 34.6885 128.378C34.0755 129.264 33.7785 130.348 33.8052 131.422C33.8463 133.574 35.3232 135.665 37.3102 136.447C38.2964 136.845 39.4042 136.833 40.435 136.512C40.9558 136.363 41.4487 136.109 41.927 135.837C42.3997 135.55 42.8443 135.213 43.2633 134.844C44.0825 134.091 44.8141 133.212 45.2631 132.215C45.7337 131.225 45.9618 130.124 45.9911 129.008C46.0442 126.764 45.3825 124.512 44.4809 122.401C44.2516 121.876 44.0066 121.338 43.7412 120.832C43.6068 120.579 43.4848 120.319 43.3402 120.073L42.9025 119.336C42.2924 118.369 41.5725 117.483 40.7811 116.632C39.9971 115.775 39.1416 114.933 38.4172 113.94C37.6929 112.948 37.1414 111.824 36.7726 110.666C36.3896 109.511 36.1775 108.303 36.1047 107.094C36.0292 105.884 36.1116 104.683 36.2211 103.508C36.5771 98.7561 38.1704 94.1206 40.6918 90.1454C40.1637 91.1987 39.6708 92.2661 39.2408 93.3567C38.8153 94.4491 38.44 95.558 38.1195 96.6804C37.4794 98.9311 37.1436 101.238 37.0169 103.568C36.9477 104.738 36.8993 105.895 36.985 107.034C37.0711 108.172 37.297 109.297 37.664 110.373C38.0166 111.453 38.5216 112.464 39.1914 113.37C39.8612 114.278 40.6921 115.091 41.5029 115.963C42.3188 116.83 43.097 117.772 43.7499 118.793L44.2191 119.571C44.3736 119.832 44.504 120.104 44.6475 120.37C44.931 120.905 45.177 121.437 45.4228 121.989C46.38 124.179 47.0898 126.557 47.029 129.037C46.9945 130.27 46.7382 131.521 46.1951 132.657C45.6678 133.809 44.857 134.774 43.9481 135.607C43.0227 136.424 41.953 137.11 40.7346 137.486C39.5294 137.864 38.1452 137.879 36.9411 137.386C35.7406 136.908 34.7255 136.061 34.0074 135.018C33.647 134.497 33.3526 133.928 33.1468 133.325C32.9472 132.72 32.8344 132.086 32.8143 131.448C32.7839 130.174 33.1453 128.878 33.8759 127.827C34.5897 126.764 35.622 125.956 36.766 125.438C37.9064 124.908 39.2083 124.699 40.4786 124.886C41.756 125.059 42.9124 125.705 43.8558 126.503C44.7988 127.318 45.5612 128.296 46.1691 129.361C46.7858 130.453 47.133 131.659 47.2908 132.874C47.4413 134.091 47.4234 135.324 47.2018 136.533C46.9832 137.742 46.5668 138.907 46.0354 139.991C44.9562 142.157 43.5646 144.084 42.2086 146.009C41.5263 146.968 40.8397 147.93 40.1417 148.88C39.4488 149.829 38.7684 150.774 38.1452 151.753C37.52 152.73 36.9524 153.741 36.4306 154.776L36.0483 155.558L35.7033 156.357L35.0134 157.955L33.9935 157.549Z" fill="#ffffff"/>
<path d="M47.8013 208.383C50.0567 207.705 52.232 206.77 54.2842 205.608C55.3136 205.028 56.3094 204.397 57.2805 203.716C58.2528 203.037 59.2086 202.316 60.1897 201.615C62.1441 200.229 64.0751 198.799 66.1731 197.556C67.2227 196.939 68.3326 196.386 69.5166 195.997C70.1054 195.795 70.7181 195.659 71.333 195.552C71.9515 195.464 72.5733 195.405 73.1959 195.407C74.4399 195.409 75.693 195.586 76.8832 196C77.4742 196.198 78.0675 196.487 78.5919 196.81C79.1258 197.135 79.6334 197.5 80.108 197.91C81.0543 198.725 81.8889 199.73 82.3792 200.935C82.626 201.533 82.7736 202.177 82.8194 202.827C82.8582 203.477 82.7974 204.13 82.644 204.753C82.3408 206.001 81.7113 207.166 80.8086 208.091C79.9128 209.019 78.7087 209.677 77.423 209.892C76.1409 210.122 74.7918 209.923 73.624 209.369C72.4539 208.819 71.4432 207.942 70.7503 206.84C70.0461 205.747 69.733 204.362 69.9286 203.065C70.1109 201.764 70.6954 200.582 71.4436 199.57C72.2012 198.559 73.1252 197.685 74.207 197.01C75.2979 196.337 76.5496 195.941 77.8057 195.813C79.0643 195.68 80.3233 195.787 81.5362 196.029C82.7513 196.272 83.9268 196.651 85.0576 197.118C86.1878 197.592 87.2805 198.105 88.3487 198.736C89.4082 199.366 90.3984 200.122 91.3004 200.944C92.2064 201.763 93.0307 202.626 93.9323 203.346C94.8321 204.067 95.8314 204.63 96.9183 205.019C98.0067 205.405 99.1456 205.672 100.3 205.783C101.457 205.898 102.632 205.86 103.821 205.793C106.198 205.682 108.544 205.344 110.839 204.708C111.984 204.389 113.113 204.01 114.226 203.578C115.337 203.143 116.424 202.642 117.497 202.105C113.452 204.675 108.715 206.273 103.88 206.601C102.681 206.711 101.453 206.772 100.221 206.67C98.9892 206.571 97.7698 206.319 96.5997 205.905C95.4264 205.496 94.3066 204.875 93.3328 204.102C92.3561 203.331 91.5172 202.46 90.6394 201.679C89.7649 200.894 88.8362 200.195 87.832 199.606C86.8338 199.023 85.7487 198.521 84.6673 198.077C82.5023 197.215 80.1805 196.614 77.9133 196.844C76.7869 196.958 75.6996 197.304 74.7471 197.887C73.7935 198.478 72.9428 199.277 72.2646 200.181C71.5904 201.087 71.0872 202.126 70.9342 203.206C70.7738 204.284 71.0151 205.38 71.6029 206.307C72.7586 208.177 75.0833 209.325 77.2549 208.922C78.3363 208.742 79.3412 208.201 80.1117 207.408C80.8866 206.621 81.4421 205.603 81.7058 204.526C81.979 203.446 81.913 202.314 81.4941 201.293C81.0825 200.269 80.3519 199.369 79.4899 198.624C79.0588 198.249 78.5915 197.911 78.103 197.612C77.6083 197.306 77.1179 197.067 76.5741 196.88C75.5008 196.502 74.3483 196.333 73.1988 196.341C72.6227 196.342 72.0493 196.4 71.4824 196.482C70.9188 196.585 70.3585 196.71 69.8147 196.9C68.7226 197.265 67.6764 197.789 66.6649 198.391C64.6428 199.6 62.7209 201.035 60.776 202.429C58.857 203.828 56.9253 205.321 54.8064 206.523C52.7026 207.746 50.4497 208.722 48.1195 209.434L47.8013 208.383Z" fill="#ffffff"/>
</svg>
