<svg width="245" height="241" viewBox="0 0 245 241" fill="none" xmlns="http://www.w3.org/2000/svg">
<path d="M199.408 90.4567C199.308 90.4567 199.226 90.4552 199.163 90.4534C197.981 90.4168 191.939 89.9671 189.003 84.6648C186.005 79.2493 189.007 73.8276 189.137 73.5995C190.773 70.7083 192.957 68.9835 195.629 68.4682C198.728 67.8709 202.058 69.0109 204.11 71.3737C206.822 74.4963 207.224 79.5203 204.953 81.9135C204.671 82.2105 203.169 83.6727 201.253 83.3029C199.848 83.0319 198.611 81.8494 198.377 80.5526C198.186 79.4903 198.718 78.763 199.232 78.0599C199.724 77.3886 200.232 76.6943 200.408 75.5279C200.618 74.1341 200.414 72.9216 199.803 71.9252C198.647 70.04 196.378 69.6386 195.756 69.5628C192.282 70.2721 190.639 73.1762 190.095 74.1352C189.975 74.3473 187.26 79.2493 189.964 84.1323C192.612 88.9146 198.12 89.3218 199.197 89.3548C199.993 89.3808 204.115 89.3442 207.35 86.2483C209.387 84.2993 210.665 81.4605 210.95 78.2547C211.562 71.3645 205.177 65.6744 199.003 60.1718C192.856 54.693 186.499 49.0278 187.447 42.2035C187.615 40.9862 188.448 36.7855 192.069 33.8408C195.886 30.7376 200.397 31.0639 201.261 31.1602C202.436 31.2913 208.423 32.2262 210.923 37.7468C213.475 43.3827 210.047 48.548 209.9 48.7652C208.036 51.5158 205.721 53.0593 203.016 53.3582C199.878 53.7061 196.652 52.2998 194.797 49.7803C192.344 46.4493 192.348 41.4096 194.804 39.2065C195.108 38.9333 196.72 37.5952 198.603 38.1189C199.982 38.5019 201.12 39.78 201.249 41.0914C201.354 42.1658 200.766 42.8477 200.196 43.5072C199.652 44.1371 199.09 44.7882 198.821 45.9366C198.499 47.3092 198.605 48.5338 199.134 49.5767C200.134 51.548 202.363 52.131 202.977 52.2566C206.497 51.8292 208.369 49.0666 208.987 48.154C209.124 47.9522 212.224 43.282 209.923 38.1998C207.668 33.2208 202.21 32.3712 201.139 32.2519C200.353 32.164 196.24 31.8662 192.763 34.6934C189.453 37.3846 188.69 41.2375 188.535 42.3544C187.669 48.5979 193.53 53.8214 199.735 59.3519C206.111 65.0354 212.705 70.9119 212.044 78.3521C211.736 81.823 210.339 84.909 208.11 87.0418C204.815 90.1949 200.685 90.4567 199.408 90.4567ZM199.037 69.6023C199.666 70.0187 200.269 70.5838 200.74 71.351C201.49 72.5745 201.744 74.0349 201.495 75.692C201.278 77.1257 200.636 78.0035 200.119 78.7088C199.614 79.3987 199.356 79.7854 199.459 80.3575C199.614 81.2177 200.493 82.0376 201.461 82.2244C202.842 82.4913 204.026 81.2942 204.156 81.1569C206.033 79.1786 205.608 74.7739 203.28 72.0936C202.183 70.8306 200.669 69.966 199.037 69.6023ZM197.725 39.0992C196.604 39.0992 195.658 39.9162 195.538 40.0242C193.507 41.8461 193.577 46.2706 195.682 49.1288C196.674 50.4765 198.114 51.4605 199.711 51.9541C199.118 51.4887 198.561 50.8764 198.154 50.074C197.505 48.7938 197.369 47.3176 197.751 45.6861C198.082 44.2748 198.793 43.4512 199.364 42.7894C199.923 42.142 200.212 41.7776 200.155 41.199C200.069 40.3293 199.258 39.4416 198.309 39.1776C198.111 39.123 197.915 39.0992 197.725 39.0992Z" fill="#ffffff"/>
<path d="M222.471 140.811C222.348 140.811 222.224 140.801 222.099 140.78C221.243 140.638 220.318 139.979 220.254 139.124C220.18 138.142 221.161 137.613 222.404 136.943C223.167 136.531 224.032 136.065 224.855 135.413C226.402 134.189 227.603 132.433 228.424 130.191L229.021 128.563L229.471 130.238C230.072 132.479 231.089 134.225 232.493 135.427C233.313 136.129 234.21 136.613 235.001 137.04C236.206 137.69 237.158 138.203 237.087 139.183C237.03 139.984 236.238 140.593 235.522 140.758C233.398 141.245 231.309 138.044 230.519 136.839C229.811 135.758 229.246 134.581 228.83 133.323C228.365 134.575 227.767 135.754 227.041 136.843C226.038 138.349 224.399 140.811 222.471 140.811ZM226.841 135.049C226.436 135.499 226.001 135.908 225.537 136.275C224.638 136.986 223.688 137.498 222.925 137.91C222.214 138.293 221.329 138.771 221.349 139.041C221.366 139.264 221.807 139.618 222.279 139.697C223.666 139.93 225.328 137.432 226.126 136.233C226.382 135.85 226.62 135.455 226.841 135.049ZM230.983 135.491C231.127 135.745 231.279 135.993 231.438 136.237C233.476 139.349 234.646 139.832 235.275 139.687C235.644 139.602 235.978 139.295 235.991 139.104C236.011 138.833 235.162 138.375 234.48 138.006C233.681 137.576 232.687 137.04 231.778 136.261C231.499 136.022 231.235 135.766 230.983 135.491Z" fill="#ffffff"/>
<path d="M228.912 144.444L228.482 144.018C227.211 142.76 226.467 141.401 226.268 139.978C226.122 138.932 226.294 138.116 227.583 133.745C227.889 132.707 228.151 131.831 228.346 131.184L228.908 129.317L229.403 131.203C229.571 131.842 229.808 132.761 230.086 133.869C231.188 138.273 231.248 139.034 231.131 139.95C230.954 141.341 230.336 142.696 229.294 143.974L228.912 144.444ZM228.833 133.392C228.77 133.605 228.704 133.826 228.636 134.055C227.351 138.414 227.246 139.041 227.356 139.826C227.498 140.84 227.99 141.832 228.823 142.78C229.504 141.816 229.913 140.82 230.041 139.811C230.137 139.06 230.072 138.336 229.02 134.136C228.955 133.877 228.893 133.629 228.833 133.392Z" fill="#ffffff"/>
<path d="M105.791 23.7347C105.758 23.7347 105.724 23.7336 105.691 23.731C104.889 23.6732 104.28 22.8814 104.115 22.1658C103.627 20.0506 106.829 17.953 108.034 17.1631C109.115 16.4549 110.292 15.8898 111.55 15.4738C110.298 15.0091 109.12 14.4107 108.031 13.6852C106.428 12.6181 103.745 10.8318 104.093 8.74292C104.235 7.8871 104.894 6.96242 105.749 6.89761C106.741 6.82327 107.26 7.80507 107.93 9.0476C108.342 9.81078 108.808 10.6758 109.46 11.4994C110.684 13.0462 112.441 14.247 114.682 15.0684L116.311 15.6653L114.635 16.1147C112.394 16.716 110.648 17.7326 109.446 19.1362C108.744 19.9565 108.26 20.8534 107.833 21.6451C107.206 22.8078 106.705 23.7347 105.791 23.7347ZM109.382 17.6275C109.128 17.771 108.879 17.9226 108.636 18.0823C105.523 20.1217 105.041 21.2943 105.185 21.9187C105.27 22.2882 105.578 22.6214 105.769 22.6353C106.033 22.6419 106.498 21.8059 106.866 21.1236C107.297 20.3253 107.833 19.3314 108.612 18.4221C108.85 18.1431 109.107 17.8779 109.382 17.6275ZM105.841 7.99293C105.838 7.99293 105.835 7.99293 105.832 7.9933C105.608 8.01014 105.255 8.45142 105.176 8.92346C104.945 10.3114 107.44 11.9725 108.639 12.7708C109.022 13.0257 109.417 13.2641 109.823 13.4853C109.373 13.0799 108.965 12.6449 108.598 12.1812C107.886 11.2822 107.374 10.3326 106.963 9.56945C106.584 8.86597 106.113 7.99293 105.841 7.99293Z" fill="#ffffff"/>
<path d="M105.533 17.8168C105.312 17.8168 105.121 17.7999 104.923 17.7747C103.531 17.5974 102.177 16.9796 100.899 15.9381L100.429 15.5562L100.855 15.1259C102.113 13.8555 103.472 13.1107 104.895 12.9118C105.942 12.7646 106.757 12.9374 111.128 14.2265C112.166 14.5326 113.042 14.7948 113.688 14.9897L115.556 15.5525L113.67 16.0473C113.031 16.2146 112.112 16.4527 111.004 16.7299C107.551 17.5934 106.337 17.8168 105.533 17.8168ZM102.093 15.4672C103.056 16.1472 104.053 16.5567 105.062 16.6852C105.812 16.7804 106.536 16.7152 110.736 15.6642C110.995 15.5994 111.244 15.5368 111.481 15.4767C111.268 15.4137 111.046 15.3482 110.817 15.2804C106.459 13.9951 105.833 13.8896 105.046 13.9998C104.032 14.1415 103.041 14.6344 102.093 15.4672Z" fill="#ffffff"/>
<path d="M180.101 81.8736C178.988 81.8736 177.79 81.2144 177.076 80.3765C174.213 77.0181 178.267 69.7968 179.794 67.0785C181.53 63.9877 183.783 61.1771 186.505 58.7001C182.862 59.3534 179.219 59.4885 175.646 59.0992C171.495 58.6473 164.548 57.8915 163.211 53.7757C162.7 52.2017 162.976 49.9898 164.316 49.16C165.823 48.2273 167.644 49.4654 170.164 51.1796C171.804 52.2947 173.663 53.5589 175.878 54.5539C180.052 56.4299 184.941 57.025 190.406 56.3226L192.127 56.1014L190.847 57.2726C186.883 60.901 184.377 64.8681 183.399 69.0641C182.83 71.5066 182.794 73.8442 182.761 75.9063C182.716 78.7436 182.681 80.9844 181.058 81.685C180.756 81.815 180.432 81.8736 180.101 81.8736ZM186.924 59.8075C184.432 62.1325 182.362 64.7505 180.752 67.6157C179.464 69.9096 175.545 76.8881 177.912 79.6635C178.555 80.4179 179.824 81.0196 180.622 80.6761C181.593 80.2572 181.623 78.3294 181.662 75.8887C181.694 73.8764 181.733 71.3719 182.329 68.8147C183.062 65.6664 184.603 62.65 186.924 59.8075ZM165.447 49.9488C165.24 49.9488 165.055 49.9946 164.894 50.0942C164.072 50.6029 163.879 52.2783 164.256 53.4362C165.373 56.876 172.133 57.6117 175.765 58.0068C179.069 58.3664 182.435 58.2646 185.806 57.7054C182.013 57.6714 178.535 56.9529 175.427 55.5558C173.124 54.5213 171.14 53.1718 169.546 52.0878C167.824 50.9174 166.4 49.9488 165.447 49.9488Z" fill="#ffffff"/>
<path d="M167.948 71.4781C166.612 71.4781 165.222 71.329 163.782 71.0309L163.19 70.9083L163.369 70.3304C164.52 66.6288 166.378 63.8456 168.892 62.0585C170.729 60.7537 172.504 60.2652 182.464 58.3254C184.858 57.8592 186.882 57.474 188.376 57.192L190.293 56.8306L188.847 58.139C187.331 59.5108 185.776 60.9009 184.228 62.2713C176.651 68.9743 175.231 69.8657 173.366 70.5508C171.686 71.1686 169.873 71.4781 167.948 71.4781ZM164.609 70.0715C167.682 70.6197 170.498 70.4348 172.987 69.5196C174.676 68.8993 176.099 67.9951 183.5 61.4481C184.554 60.5161 185.61 59.5746 186.654 58.6363C185.494 58.8575 184.155 59.115 182.674 59.4032C173.022 61.2833 171.179 61.7809 169.529 62.9535C167.347 64.5041 165.694 66.8968 164.609 70.0715Z" fill="#ffffff"/>
<path d="M240.535 232.788H239.437V16.093H113.77V14.9944H240.535V232.788Z" fill="#ffffff"/>
<path d="M229.337 131.385H228.239V5.71877H11.5438V4.62015H229.337V131.385Z" fill="#ffffff"/>
<path d="M213.383 189.006C214.065 187.28 216.123 186.443 217.777 186.443C219.421 186.443 221.461 187.269 222.172 189.006C222.77 190.471 222.134 191.871 221.439 193.401C220.893 194.605 219.583 197.488 217.777 197.429C216.341 197.383 215.374 195.502 214.481 193.767C213.519 191.897 212.796 190.491 213.383 189.006Z" fill="#ffffff"/>
<path d="M217.832 197.98C217.808 197.98 217.784 197.979 217.759 197.978C216 197.921 214.934 195.848 213.993 194.018C212.987 192.063 212.194 190.52 212.872 188.805C213.662 186.805 215.968 185.894 217.777 185.894H217.778C219.568 185.894 221.865 186.802 222.68 188.799C223.369 190.482 222.642 192.082 221.94 193.628C221.346 194.936 219.963 197.98 217.832 197.98ZM213.894 189.208C213.399 190.461 214.057 191.742 214.969 193.514C215.772 195.076 216.682 196.844 217.795 196.88C219.243 196.926 220.473 194.2 220.939 193.174C221.601 191.717 222.172 190.459 221.664 189.214C221.039 187.687 219.212 186.992 217.779 186.992H217.778C216.282 186.992 214.468 187.754 213.894 189.208Z" fill="#ffffff"/>
<path d="M9.05363 0.763646C10.7799 1.44552 11.6171 3.50397 11.6171 5.15812C11.6171 6.80166 10.7913 8.84216 9.05363 9.5526C7.58954 10.151 6.1888 9.51488 4.65915 8.82018C3.45507 8.27344 0.572292 6.96425 0.630885 5.15812C0.677393 3.72223 2.55823 2.75471 4.29295 1.86226C6.1628 0.900241 7.56866 0.176983 9.05363 0.763646Z" fill="#ffffff"/>
<path d="M7.84515 10.3377C6.67256 10.3377 5.53914 9.82284 4.4321 9.32004C3.10937 8.71909 0.011261 7.3125 0.0819388 5.13979C0.138701 3.38127 2.2118 2.31451 4.04137 1.37372C5.99544 0.368488 7.53901 -0.425446 9.25541 0.252402C11.2549 1.04231 12.166 3.34904 12.1664 5.15774C12.1664 6.94702 11.2578 9.24496 9.26127 10.0609C8.783 10.2564 8.3106 10.3377 7.84515 10.3377ZM7.95282 1.10493C6.96552 1.10493 5.89839 1.65387 4.54416 2.3504C2.98376 3.15312 1.21609 4.06242 1.17983 5.17532C1.13332 6.61524 3.85973 7.85338 4.88621 8.31956C6.34297 8.9813 7.60125 9.55294 8.84562 9.04355C10.3727 8.41953 11.0678 6.5918 11.0678 5.15774C11.0678 3.66252 10.3064 1.8487 8.85185 1.27412C8.55595 1.15767 8.25823 1.10493 7.95282 1.10493Z" fill="#ffffff"/>
<path d="M218.45 186.743H217.352V25.4295H56.0379V24.3308H218.45V186.743Z" fill="#ffffff"/>
<path d="M239.873 240.209C241.896 240.209 243.536 238.57 243.536 236.547C243.536 234.525 241.896 232.885 239.873 232.885C237.851 232.885 236.211 234.525 236.211 236.547C236.211 238.57 237.851 240.209 239.873 240.209Z" fill="#ffffff"/>
<path d="M239.873 240.759C237.551 240.759 235.662 238.87 235.662 236.547C235.662 234.225 237.551 232.336 239.873 232.336C242.196 232.336 244.085 234.225 244.085 236.547C244.085 238.87 242.196 240.759 239.873 240.759ZM239.873 233.435C238.157 233.435 236.761 234.831 236.761 236.547C236.761 238.264 238.157 239.66 239.873 239.66C241.59 239.66 242.986 238.264 242.986 236.547C242.986 234.831 241.59 233.435 239.873 233.435Z" fill="#ffffff"/>
<path d="M52.3758 28.5422C54.3983 28.5422 56.0379 26.9026 56.0379 24.8801C56.0379 22.8576 54.3983 21.218 52.3758 21.218C50.3533 21.218 48.7137 22.8576 48.7137 24.8801C48.7137 26.9026 50.3533 28.5422 52.3758 28.5422Z" fill="#ffffff"/>
<path d="M52.3758 29.0915C50.0537 29.0915 48.1644 27.2022 48.1644 24.8801C48.1644 22.558 50.0537 20.6688 52.3758 20.6688C54.6979 20.6688 56.5872 22.558 56.5872 24.8801C56.5872 27.2022 54.6983 29.0915 52.3758 29.0915ZM52.3758 21.7674C50.6594 21.7674 49.263 23.1637 49.263 24.8801C49.263 26.5965 50.6594 27.9929 52.3758 27.9929C54.0922 27.9929 55.4886 26.5965 55.4886 24.8801C55.4886 23.1637 54.0922 21.7674 52.3758 21.7674Z" fill="#ffffff"/>
<path d="M210.684 83.4512L209.957 85.0874L209.594 85.9051L209.192 86.7049C208.645 87.7654 208.047 88.8029 207.394 89.8019C206.747 90.8057 206.047 91.7684 205.348 92.7166C204.647 93.6603 203.962 94.6106 203.275 95.5664C201.914 97.4765 200.532 99.3819 199.501 101.431C198.992 102.457 198.607 103.528 198.4 104.635C198.341 104.91 198.32 105.192 198.277 105.471C198.259 105.752 198.231 106.034 198.224 106.316C198.205 106.882 198.234 107.448 198.308 108.006C198.455 109.12 198.779 110.218 199.325 111.176C199.885 112.151 200.595 113.052 201.438 113.774C202.283 114.482 203.273 115.026 204.342 115.164C205.4 115.317 206.518 115.144 207.511 114.678C208.504 114.224 209.392 113.521 209.989 112.622C210.602 111.737 210.899 110.653 210.872 109.578C210.831 107.426 209.354 105.335 207.367 104.553C206.381 104.155 205.273 104.167 204.242 104.488C203.721 104.637 203.228 104.891 202.75 105.163C202.277 105.45 201.833 105.788 201.414 106.156C200.595 106.91 199.863 107.788 199.414 108.785C198.943 109.775 198.715 110.876 198.686 111.992C198.633 114.237 199.295 116.488 200.196 118.599C200.425 119.124 200.67 119.662 200.936 120.168C201.07 120.421 201.192 120.681 201.337 120.928L201.775 121.664C202.385 122.631 203.105 123.517 203.896 124.368C204.68 125.225 205.535 126.067 206.26 127.06C206.984 128.052 207.536 129.176 207.904 130.334C208.287 131.489 208.5 132.697 208.572 133.906C208.648 135.116 208.565 136.317 208.456 137.492C208.1 142.244 206.507 146.88 203.985 150.855C204.513 149.802 205.006 148.734 205.436 147.643C205.862 146.551 206.237 145.442 206.558 144.32C207.198 142.069 207.533 139.762 207.66 137.433C207.729 136.263 207.778 135.106 207.692 133.966C207.606 132.828 207.38 131.703 207.013 130.627C206.66 129.547 206.155 128.537 205.486 127.63C204.816 126.722 203.985 125.909 203.174 125.037C202.358 124.17 201.58 123.228 200.927 122.207L200.458 121.429C200.303 121.169 200.173 120.896 200.03 120.63C199.746 120.096 199.5 119.563 199.254 119.012C198.297 116.821 197.587 114.444 197.648 111.963C197.683 110.731 197.939 109.479 198.482 108.343C199.009 107.191 199.82 106.226 200.729 105.393C201.655 104.576 202.724 103.89 203.942 103.514C205.148 103.137 206.532 103.121 207.736 103.614C208.936 104.092 209.952 104.939 210.67 105.982C211.03 106.503 211.324 107.072 211.53 107.675C211.73 108.28 211.843 108.914 211.863 109.553C211.893 110.827 211.532 112.123 210.801 113.173C210.087 114.236 209.055 115.044 207.911 115.562C206.771 116.092 205.469 116.301 204.198 116.114C202.921 115.941 201.765 115.295 200.821 114.497C199.878 113.683 199.116 112.704 198.508 111.64C197.891 110.548 197.544 109.341 197.386 108.127C197.236 106.909 197.254 105.677 197.475 104.467C197.694 103.259 198.11 102.094 198.642 101.009C199.721 98.8428 201.112 96.9166 202.468 94.9907C203.151 94.032 203.837 93.0699 204.535 92.1204C205.228 91.1715 205.909 90.226 206.532 89.2475C207.157 88.2701 207.725 87.2597 208.246 86.2237L208.629 85.4419L208.974 84.6428L209.664 83.0454L210.684 83.4512Z" fill="#ffffff"/>
<path d="M196.876 32.617C194.621 33.2949 192.445 34.2298 190.393 35.3921C189.364 35.9715 188.368 36.6024 187.397 37.2843C186.425 37.9633 185.469 38.684 184.488 39.3845C182.533 40.7713 180.602 42.201 178.504 43.4439C177.455 44.061 176.345 44.6139 175.161 45.0029C174.572 45.2046 173.959 45.3409 173.344 45.4482C172.726 45.5361 172.104 45.5946 171.482 45.5924C170.238 45.591 168.984 45.4137 167.794 45.0003C167.203 44.8014 166.61 44.5129 166.085 44.1895C165.552 43.8647 165.044 43.4996 164.569 43.0898C163.623 42.2754 162.788 41.2697 162.298 40.0649C162.051 39.4665 161.904 38.8224 161.858 38.1731C161.819 37.5227 161.88 36.8701 162.033 36.2461C162.337 34.9981 162.966 33.8339 163.869 32.9089C164.765 31.9802 165.969 31.3232 167.254 31.1072C168.536 30.8772 169.886 31.0768 171.053 31.6301C172.223 32.1801 173.234 33.0572 173.927 34.1595C174.631 35.2519 174.944 36.6376 174.749 37.934C174.566 39.2355 173.982 40.4169 173.233 41.4291C172.476 42.4401 171.552 43.3139 170.47 43.9888C169.379 44.6619 168.127 45.0581 166.871 45.1863C165.613 45.3193 164.354 45.2123 163.141 44.9703C161.926 44.7275 160.75 44.3477 159.619 43.8808C158.489 43.4069 157.396 42.8939 156.328 42.2629C155.269 41.6327 154.279 40.8768 153.377 40.055C152.471 39.2366 151.646 38.3734 150.745 37.6535C149.845 36.9324 148.846 36.3688 147.759 35.9803C146.67 35.5943 145.531 35.327 144.377 35.216C143.22 35.101 142.045 35.1395 140.856 35.2061C138.479 35.3171 136.133 35.6547 133.838 36.2908C132.693 36.6098 131.564 36.9895 130.451 37.4209C129.34 37.856 128.253 38.3573 127.18 38.8942C131.225 36.3238 135.962 34.7264 140.797 34.3986C141.996 34.2884 143.224 34.2272 144.456 34.3287C145.688 34.4283 146.907 34.6806 148.077 35.0937C149.251 35.5027 150.37 36.1245 151.344 36.8969C152.321 37.6685 153.16 38.5393 154.038 39.3201C154.912 40.1056 155.841 40.8039 156.845 41.3932C157.843 41.9758 158.928 42.4779 160.01 42.9224C162.175 43.7838 164.496 44.3847 166.764 44.1551C167.89 44.0412 168.977 43.6951 169.93 43.1118C170.883 42.5211 171.734 41.7224 172.412 40.8179C173.087 39.9119 173.59 38.8733 173.743 37.7934C173.903 36.7149 173.662 35.6196 173.074 34.692C171.918 32.8225 169.594 31.6737 167.422 32.0776C166.341 32.2574 165.336 32.7983 164.565 33.5911C163.79 34.3781 163.235 35.3958 162.971 36.4735C162.698 37.5528 162.764 38.6851 163.183 39.7057C163.595 40.73 164.325 41.6301 165.187 42.3753C165.618 42.75 166.085 43.0883 166.574 43.3875C167.069 43.6933 167.559 43.9321 168.103 44.1192C169.176 44.4968 170.329 44.6659 171.478 44.6579C172.054 44.6572 172.628 44.5993 173.195 44.5169C173.758 44.4144 174.319 44.2888 174.862 44.0987C175.954 43.7343 177.001 43.2103 178.012 42.6086C180.034 41.3987 181.956 39.9646 183.901 38.5697C185.82 37.1712 187.752 35.6785 189.871 34.4763C191.974 33.2531 194.227 32.2776 196.558 31.5653L196.876 32.617Z" fill="#ffffff"/>
</svg>
