<svg width="85" height="26" viewBox="0 0 85 26" fill="none" xmlns="http://www.w3.org/2000/svg">
<rect width="64" height="1.5" transform="matrix(-1 0 0 1 85 11.8409)" fill="#d4a5a5"/>
<path d="M5.5513 22.3433C5.5513 22.5308 5.5664 22.72 5.5983 22.9108C5.81657 24.2199 6.82283 25.6324 8.13019 25.7315C9.63008 25.844 10.4388 24.3441 11.463 22.4452C12.092 21.2788 12.8045 19.9575 13.8007 18.6988C15.6711 16.3348 18.3558 14.5002 21.7814 13.2444L24.2702 12.3321L21.7098 11.6449C18.2847 10.7265 15.6168 9.17285 13.78 7.02712C12.7071 5.77404 11.9672 4.40287 11.3147 3.19288C10.3213 1.35216 9.53665 -0.102397 8.04012 0.00561643C6.81502 0.0934841 5.88487 1.30347 5.63246 2.39705C4.88811 5.64419 9.78008 8.8365 11.6219 10.0426C13.2735 11.1249 15.0728 11.9891 16.9947 12.6243C15.0812 13.335 13.2802 14.249 11.6163 15.3582C9.31388 16.8917 5.55186 19.3961 5.5513 22.3433ZM14.357 15.6638C13.6697 16.2833 13.0451 16.9482 12.4844 17.6573C11.3975 19.0307 10.6145 20.4824 9.98547 21.6488C9.3995 22.7356 8.66973 24.0883 8.25727 24.0576C7.91587 24.0318 7.37469 23.3574 7.25436 22.6355C6.89841 20.5166 10.7153 17.9763 12.5476 16.7568C13.133 16.3656 13.7363 16.0018 14.357 15.6638ZM13.682 9.33346C13.2942 9.11352 12.9142 8.88181 12.5426 8.63836C7.78658 5.52386 7.04729 3.73575 7.26891 2.77481C7.39931 2.21068 7.8683 1.70083 8.16101 1.68012C8.57515 1.65046 9.27471 2.9483 9.83773 3.99039C10.4959 5.21101 11.3152 6.72938 12.5051 8.11901C12.87 8.54491 13.2623 8.94954 13.682 9.33346Z" fill="#d4a5a5"/>
<path d="M5.90157e-06 12.499L0.650324 13.1566C2.57276 15.0981 4.64968 16.2364 6.82451 16.5398C8.42346 16.7631 9.66982 16.5006 16.3505 14.5306C17.9371 14.0627 19.2758 13.662 20.2636 13.3648L23.1179 12.5046L20.2345 11.7485C19.2585 11.4928 17.8543 11.1295 16.1602 10.7053C9.43083 9.02073 8.26732 8.9295 6.86817 9.10804C4.7409 9.37891 2.67071 10.3236 0.716934 11.9153L5.90157e-06 12.499ZM16.89 12.6205C16.5648 12.7167 16.2262 12.8175 15.8759 12.9204C9.21425 14.8849 8.25722 15.0449 7.05731 14.877C5.50649 14.6604 3.9915 13.9077 2.5431 12.635C4.01501 11.5952 5.53784 10.9695 7.08026 10.7736C8.22757 10.627 9.33347 10.7272 15.7528 12.3339C16.1484 12.433 16.5279 12.5287 16.89 12.6205Z" fill="#d4a5a5"/>
</svg>
