<svg width="85" height="26" viewBox="0 0 85 26" fill="none" xmlns="http://www.w3.org/2000/svg">
<rect y="11.8409" width="64" height="1.5" fill="#d4a5a5"/>
<path d="M79.4487 22.3433C79.4487 22.5308 79.4336 22.72 79.4017 22.9108C79.1835 24.2199 78.1772 25.6324 76.8698 25.7315C75.3699 25.844 74.5612 24.3441 73.5371 22.4452C72.908 21.2788 72.1955 19.9575 71.1994 18.6988C69.329 16.3348 66.6443 14.5002 63.2186 13.2444L60.7298 12.3321L63.2902 11.6449C66.7153 10.7265 69.3832 9.17285 71.2201 7.02712C72.2929 5.77404 73.0328 4.40287 73.6854 3.19288C74.6788 1.35216 75.4634 -0.102397 76.9599 0.00561643C78.185 0.0934841 79.1152 1.30347 79.3676 2.39705C80.1119 5.64419 75.22 8.8365 73.3781 10.0426C71.7266 11.1249 69.9272 11.9891 68.0054 12.6243C69.9188 13.335 71.7198 14.249 73.3837 15.3582C75.6862 16.8917 79.4482 19.3961 79.4487 22.3433ZM70.643 15.6638C71.3303 16.2833 71.9549 16.9482 72.5157 17.6573C73.6025 19.0307 74.3855 20.4824 75.0146 21.6488C75.6005 22.7356 76.3303 24.0883 76.7428 24.0576C77.0842 24.0318 77.6253 23.3574 77.7457 22.6355C78.1016 20.5166 74.2848 17.9763 72.4524 16.7568C71.867 16.3656 71.2637 16.0018 70.643 15.6638ZM71.318 9.33346C71.7058 9.11352 72.0858 8.88181 72.4575 8.63836C77.2134 5.52386 77.9527 3.73575 77.7311 2.77481C77.6007 2.21068 77.1317 1.70083 76.839 1.68012C76.4249 1.65046 75.7253 2.9483 75.1623 3.99039C74.5041 5.21101 73.6848 6.72938 72.495 8.11901C72.1301 8.54491 71.7377 8.94954 71.318 9.33346Z" fill="#d4a5a5"/>
<path d="M85 12.499L84.3497 13.1566C82.4273 15.0981 80.3503 16.2364 78.1755 16.5398C76.5766 16.7631 75.3302 16.5006 68.6495 14.5306C67.0629 14.0627 65.7242 13.662 64.7364 13.3648L61.8821 12.5046L64.7655 11.7485C65.7416 11.4928 67.1457 11.1295 68.8398 10.7053C75.5692 9.02073 76.7327 8.9295 78.1318 9.10804C80.2591 9.37891 82.3293 10.3236 84.2831 11.9153L85 12.499ZM68.11 12.6205C68.4352 12.7167 68.7738 12.8175 69.1241 12.9204C75.7858 14.8849 76.7428 15.0449 77.9427 14.877C79.4935 14.6604 81.0085 13.9077 82.4569 12.635C80.985 11.5952 79.4622 10.9695 77.9198 10.7736C76.7725 10.627 75.6665 10.7272 69.2472 12.3339C68.8516 12.433 68.4721 12.5287 68.11 12.6205Z" fill="#d4a5a5"/>
</svg>
