<svg width="106" height="93" viewBox="0 0 106 93" fill="none" xmlns="http://www.w3.org/2000/svg">
<path d="M76.2024 92.3994C75.8824 92.3994 75.5224 92.3594 75.2024 92.2394C65.6824 88.7994 57.3224 84.9594 50.0424 80.8394C40.4824 85.0794 31.8824 87.3594 25.2424 88.5994C12.0824 90.9994 3.48242 89.9994 3.12242 89.9594C1.48242 89.7594 0.322422 88.2394 0.522422 86.5994C0.722422 84.9594 2.24242 83.7994 3.88242 83.9994C3.96242 83.9994 12.1224 84.9594 24.4424 82.6794C29.7624 81.6794 36.3624 79.9594 43.7224 77.0394C17.3224 59.9994 7.60242 39.3594 8.00242 24.2794C8.32242 13.0394 14.1624 4.31936 23.2824 1.59936C29.6424 -0.320637 35.5224 0.279367 40.8024 3.35937C48.1624 7.63937 52.6424 15.9594 55.0824 22.0794C56.4424 19.5594 58.2824 16.6394 60.6024 13.8394C68.8424 3.83937 79.1224 0.0393681 90.4024 2.87937C98.1224 4.83937 103.162 9.79937 104.602 16.9194C105.962 23.6794 104.002 31.7594 98.9624 40.3594C93.7224 49.2394 85.2824 58.1994 74.6024 66.3194C68.5224 70.9594 62.4824 74.6794 56.7224 77.6794C63.0024 80.9994 69.8824 83.9994 77.2424 86.6394C78.8024 87.1994 79.6024 88.9194 79.0424 90.4794C78.6024 91.6394 77.4424 92.3994 76.2024 92.3994ZM30.3624 6.43937C28.6424 6.43937 26.8824 6.71937 25.0024 7.27937C18.3224 9.27937 14.2024 15.6794 13.9624 24.3994C13.6824 34.3594 18.4824 45.3994 27.4424 55.5594C33.4024 62.3194 41.1624 68.5594 50.4024 74.0794C56.9224 70.9594 63.9224 66.8794 70.9624 61.4794C81.0424 53.7994 88.9224 45.4394 93.7624 37.2394C98.0024 30.0794 99.7624 23.2794 98.7224 18.0794C97.7224 13.2394 94.4424 10.0794 88.9224 8.67937C80.0024 6.39937 72.0824 9.39937 65.3224 17.5194C60.0024 23.9194 57.4424 31.2394 57.4424 31.3194C57.0024 32.5994 55.7624 33.3994 54.4424 33.3594C53.0824 33.2794 51.9624 32.3194 51.6824 31.0394C51.6424 30.8794 47.8024 14.4394 37.7624 8.55937C35.4424 7.11937 32.9624 6.43937 30.3624 6.43937Z" fill="#F0E6EE" stroke="#F0E6EE" stroke-miterlimit="10"/>
</svg>
